<svg xmlns="http://www.w3.org/2000/svg" version="1.1" viewBox="-5.0 -10.0 110.0 135.0">
 <path d="m87.227 64.879-5.7422-3.3164-4.0156 0.71094 1.3906 3.832 5.7461 3.3164c0.042969-0.015625 0.12891-0.0625 0.19531-0.17578l2.375-4.1172c0.0625-0.10547 0.0625-0.20703 0.050781-0.25zm-17.484-5.5781-5.2461-3.0273v7.3672c0 7.1133-5.7891 12.898-12.898 12.898h-3.1992c-7.1133 0-12.898-5.7852-12.898-12.898v-7.3672l-5.2461 3.0273v2.7422c0 10.887 8.8555 19.742 19.742 19.742 10.887 0 19.742-8.8555 19.742-19.742zm-39.484-2.9766v-9.1328h5.2461v6.1016zm0-18.098v6.3828h5.2461v-9.4141zm0-2.9766v-5.4883c0-10.887 8.8555-19.742 19.742-19.742s19.742 8.8555 19.742 19.742v5.4883l-5.2461-3.0312v-4.0547c0-7.1094-5.7891-12.898-12.898-12.898h-3.1992c-7.1133 0-12.898 5.7852-12.898 12.898v4.0547zm39.484 2.9766-5.2461-3.0312v9.4141h5.2461zm-5.2461 15.07v-6.1016h5.2461v9.1328zm-26.41-18.332v9.6484h23.832v-9.6484zm0-5.2031v0.96875l3.8164-2.207c0.61719-0.35547 1.4062-0.14453 1.7617 0.47266 0.35547 0.61719 0.14453 1.4062-0.47266 1.7617l-2.8164 1.625h19.246l-2.8125-1.625c-0.61719-0.35547-0.82812-1.1445-0.47266-1.7617 0.35547-0.61719 1.1445-0.82812 1.7617-0.47266l3.8164 2.207v-0.96875c0-6.5703-5.3477-11.918-11.918-11.918-6.5664 0-11.91 5.3477-11.91 11.918zm11.914 44.199c-6.5703 0-11.914-5.3477-11.914-11.918v-2.6211h23.832v2.6211c0 6.5703-5.3477 11.918-11.918 11.918zm6.3359-23.891c-0.35547 0.61719-0.14453 1.4062 0.47266 1.7617l5.1094 2.9492v2.0547l-23.832 0.003906v-2.0547l5.1094-2.9492c0.61719-0.35547 0.82813-1.1445 0.47266-1.7617-0.35547-0.61719-1.1445-0.82812-1.7617-0.47266l-3.8164 2.207v-4.6133h23.832v4.6133l-3.8164-2.207c-0.625-0.35547-1.4141-0.14453-1.7695 0.46875zm-33.805 12.203-4.0117-0.71094-5.7461 3.3164c-0.011719 0.042969-0.011719 0.14453 0.054687 0.25391l2.375 4.1172c0.066406 0.11328 0.15234 0.16016 0.19531 0.17578l5.7422-3.3164zm0-21.074-4.0117-0.71094-5.7461 3.3164c-0.011719 0.042968-0.011719 0.14062 0.054687 0.25781l2.375 4.1133c0.066406 0.11328 0.15234 0.16016 0.19531 0.17578l5.7422-3.3164zm54.938 0 1.3906 3.832 5.7461 3.3164c0.042969-0.011718 0.12891-0.0625 0.19531-0.17578l2.375-4.1133c0.066407-0.11328 0.0625-0.21484 0.054688-0.25781l-5.7422-3.3164zm11.938 25.223-2.375 4.1172c-0.75 1.3008-2.3867 1.8867-3.6836 1.1367l-6.1875-3.5703c-0.26172-0.15234-0.46484-0.39062-0.56641-0.67578l-1.9141-5.2734-2.3594-1.3633v1.25c0 12.309-10.012 22.324-22.324 22.324-12.309 0-22.32-10.012-22.32-22.324v-1.25l-2.3594 1.3633-1.9141 5.2734c-0.10156 0.28516-0.30469 0.52344-0.56641 0.67578l-6.1836 3.5703c-1.2969 0.75-2.9336 0.16406-3.6836-1.1367l-2.375-4.1172c-0.77734-1.3477-0.39453-3.0352 0.85547-3.7578l6.1875-3.5703c0.26172-0.15234 0.57031-0.20703 0.87109-0.15234l5.5234 0.98047 3.6523-2.1094-0.003906-18.094-2.3594 1.3633-1.9141 5.2734c-0.10156 0.28516-0.30469 0.52734-0.56641 0.67578l-6.1836 3.5703c-1.293 0.75-2.9336 0.16406-3.6836-1.1367l-2.375-4.1133c-0.77734-1.3477-0.39453-3.0352 0.85547-3.7578l6.1875-3.5703c0.26172-0.15234 0.57031-0.20703 0.87109-0.15234l5.5234 0.97656 3.6523-2.1055v-6.9766c0-12.309 10.012-22.324 22.32-22.324 12.309 0 22.324 10.012 22.324 22.324v6.9766l3.6484 2.1055 5.5273-0.97656c0.29688-0.054688 0.60547 0 0.87109 0.15234l6.1875 3.5703c1.25 0.72266 1.6367 2.4102 0.85547 3.7578l-2.375 4.1133c-0.75 1.3008-2.3867 1.8867-3.6836 1.1367l-6.1875-3.5703c-0.26172-0.15234-0.46484-0.39062-0.56641-0.67578l-1.9141-5.2734-2.3594-1.3633v18.094l3.6484 2.1094 5.5273-0.98047c0.29688-0.054687 0.60547 0.003906 0.87109 0.15234l6.1875 3.5703c1.2344 0.72266 1.6172 2.4102 0.83594 3.7578zm-12.266 8.4375c-0.71094 0-1.2891 0.57812-1.2891 1.2891v7.8242c0 0.71094 0.57813 1.2891 1.2891 1.2891s1.2891-0.57812 1.2891-1.2891v-7.8242c0-0.71484-0.57813-1.2891-1.2891-1.2891zm0 11.98c-0.71094 0-1.2891 0.57812-1.2891 1.2891v3.1406c0 0.71484 0.57813 1.2891 1.2891 1.2891s1.2891-0.57422 1.2891-1.2891v-3.1406c0-0.71094-0.57813-1.2891-1.2891-1.2891zm7.7773-8.7227c-0.71094 0-1.2891 0.57812-1.2891 1.2891v7.8242c0 0.71094 0.57812 1.2891 1.2891 1.2891 0.71094 0 1.2891-0.57812 1.2891-1.2891v-7.8242c0-0.71484-0.57812-1.2891-1.2891-1.2891zm-62.059-47.504c0.71094 0 1.2891-0.57812 1.2891-1.2891v-7.8242c0-0.71094-0.57813-1.2891-1.2891-1.2891s-1.2891 0.57812-1.2891 1.2891v7.8242c0 0.71484 0.57813 1.2891 1.2891 1.2891zm0-11.984c0.71094 0 1.2891-0.57422 1.2891-1.2891v-3.1406c0-0.71094-0.57813-1.2891-1.2891-1.2891s-1.2891 0.57812-1.2891 1.2891v3.1406c0 0.71484 0.57813 1.2891 1.2891 1.2891zm-9.0664 7.4414c0 0.71094 0.57812 1.2891 1.2891 1.2891 0.71094 0 1.2891-0.57812 1.2891-1.2891v-7.8242c0-0.71094-0.57812-1.2891-1.2891-1.2891-0.71484 0-1.2891 0.57812-1.2891 1.2891z" fill-rule="evenodd"/>
<text x="0.0" y="117.5" font-size="5.0" font-weight="bold" font-family="Arbeit Regular, Helvetica, Arial-Unicode, Arial, Sans-serif" fill="#000000">Created by gravisio</text><text x="0.0" y="122.5" font-size="5.0" font-weight="bold" font-family="Arbeit Regular, Helvetica, Arial-Unicode, Arial, Sans-serif" fill="#000000">from Noun Project</text></svg>