<svg xmlns="http://www.w3.org/2000/svg" version="1.1" viewBox="-5.0 -10.0 110.0 135.0">
 <path d="m43.188 79.766c0.22266-0.33594 0.32031-0.76172 0.17969-1.2109-0.09375-0.29688-0.30469-0.51172-0.56641-0.66016 0.53125-0.089843 1.1758-0.18359 1.8125-0.27344 0.74219-0.10547 1.4766-0.21094 2.0352-0.3125 0.58594-0.10938 1.2344-0.21875 1.9062-0.32031 0.67969-0.10156 1.3672-0.19531 2.0352-0.27734 0.27734 0.17578 0.57031 0.32812 0.88672 0.44922-0.63281 0.41406-1.2969 0.87109-1.9531 1.3477l-0.023438 0.019532c-0.25 0.039062-0.48828 0.078125-0.69922 0.11328-0.25391 0.042969-0.52734 0.09375-0.82422 0.14844-1.1914 0.22266-2.6836 0.53516-3.8711 0.78516-0.33203 0.070312-0.63672 0.13281-0.91016 0.19141zm1.2227 3.8047-0.027344-0.003906c0.13672 0.125 0.26563 0.27344 0.35938 0.44141 0.17578 0.30469 0.25391 0.66406 0.12891 1.0273-0.042969 0.125-0.18359 0.19531-0.30859 0.14844-0.125-0.042969-0.19531-0.18359-0.14844-0.30859 0.074219-0.21094 0.023438-0.43359-0.089843-0.62891-0.074219-0.12891-0.17578-0.24609-0.28906-0.34375-0.10547-0.09375-0.21875-0.16016-0.31641-0.19531-0.046875-0.015625-0.085938-0.027343-0.10547-0.023437l-0.019531 0.007812c-0.085938 0.066406-0.16016 0.23438-0.18359 0.45703-0.023437 0.25 0.019532 0.55469 0.19531 0.85937 0.039062 0.066407 0.085937 0.13281 0.14062 0.20703 0.38281 0.48438 0.73828 0.64062 1.0234 0.59375 0.125-0.023438 0.24219-0.085938 0.33594-0.17969 0.10156-0.10156 0.18359-0.23438 0.23828-0.39062 0.14062-0.41797 0.074219-0.96484-0.34375-1.3906-0.16797-0.17188-0.37891-0.25781-0.59375-0.28516zm9.4922-6.0703c-0.63672 0.054688-1.2305 0.003906-1.7812-0.12891-0.019532-0.003906-0.039063-0.011719-0.058594-0.015625-0.71484 0.45703-1.4844 0.98438-2.2617 1.5508l-0.011719 0.007812c-0.023437 0.03125-0.058593 0.054688-0.09375 0.070313-0.74609 0.54297-1.4922 1.1172-2.1875 1.6875-0.42969 0.35156-1.0352 0.79297-1.6445 1.2422-0.55469 0.40625-1.1133 0.81641-1.5508 1.1641 0.050781 0 0.10547 0.003906 0.15625 0.011719 0.32031 0.039062 0.62891 0.16406 0.88672 0.42969 0.42578 0.4375 0.57812 0.96875 0.54297 1.4531 0.22266-0.19141 0.48047-0.41406 0.76172-0.65625 0.92188-0.80078 2.0781-1.8008 3.0156-2.5625 1.3672-1.1133 2.5625-1.957 3.3555-2.5156 0.40625-0.28906 0.70312-0.49609 0.84766-0.61328-0.054687-0.23438-0.046875-0.47656 0.011719-0.71094 0.035156-0.13672 0.085937-0.26953 0.15234-0.39453-0.039063-0.003906-0.074219-0.007812-0.10938-0.011719h-0.023438zm-31.32-13.77c0.054688-0.17188 0.23828-0.26562 0.40625-0.21094 0.14844 0.046875 0.24219 0.19531 0.22656 0.34375-0.027344 1.0977-0.011719 2.1641 0.003906 3.2227 0.039062 2.5312 0.074219 5.0078-0.47266 7.7383 0.72266-0.76562 1.5391-1.6641 2.4258-2.6719-0.14453-2.3164-0.125-4.3633-0.10547-6.543 0.003906-0.5625 0.011719-1.1328 0.011719-1.7148-0.007813-0.046875-0.007813-0.09375 0-0.13672v-0.074218c0-0.17969 0.14453-0.32422 0.32422-0.32422 0.17969 0 0.32422 0.14453 0.32422 0.32422v0.10547c0.20313 0.59766 0.53516 0.99219 0.91406 1.2109 0.28125 0.16016 0.58984 0.23047 0.89453 0.21484 0.30469-0.015625 0.59766-0.11328 0.85156-0.28125 0.33594-0.22266 0.59375-0.57422 0.69531-1.0234 0.023438-0.10156 0.09375-0.19141 0.19922-0.23438 0.16797-0.066406 0.35547 0.015625 0.42188 0.18359 0.027344 0.074219 0.36719 0.12891 0.81641 0.15625 0.49609 0.027344 1.0859-0.019531 1.5781-0.16016 0.92578-1.1602 1.875-2.3672 2.832-3.6055-1.0195-1.5312-2.5156-3.9805-3.6484-6.2305-0.84766-1.6836-1.4922-3.2656-1.5898-4.2891-0.011718-0.14062 0.070313-0.28125 0.21094-0.33203 0.16797-0.0625 0.35547 0.023437 0.41797 0.19141 0.14063 0.37891 0.42188 0.94531 0.75391 1.3633 0.20703 0.25781 0.42188 0.44922 0.60938 0.46484 0.52344 0.050781 0.70312-0.35938 0.71875-0.38672 0.015625-0.035156 0.035156-0.066406 0.0625-0.097656 0.12109-0.13281 0.32812-0.14062 0.45703-0.019532 0 0 0.48047 0.4375 0.96875 0.38672 0.28516-0.03125 1-0.14062 1.5391-0.33594 0.18359-0.066406 0.34375-0.14062 0.43359-0.20703-1.1523-1.9062-2.375-3.0469-3.5664-4.1602-1.6094-1.5-3.168-2.9531-4.4688-6.1133-0.054687-0.11719-0.039063-0.26172 0.058594-0.35938 0.12109-0.12891 0.32812-0.13672 0.45703-0.015625 0.95703 0.90234 1.5156-0.078125 1.5781-0.19531 0.007813-0.015624 0.015625-0.027343 0.023437-0.042968 0.097657-0.14844 0.29688-0.19141 0.44922-0.09375 0.003907 0 0.99609 0.66406 1.4922-0.12891-0.9375-0.64844-2.5391-2.6953-4.0742-4.9844-0.42969-0.64453-0.85938-1.3086-1.2656-1.9648-0.007813-0.011719-0.015625-0.023438-0.023437-0.035157-1.0078-1.6328-1.8828-3.2305-2.375-4.3828-0.69141 1.625-2.1484 4.1328-3.6602 6.3828-1.5312 2.2891-3.1367 4.332-4.0742 4.9844 0.49609 0.79297 1.4883 0.12891 1.4922 0.12891 0.14844-0.097656 0.35156-0.054688 0.44922 0.09375 0.007812 0.015625 0.015625 0.027344 0.023437 0.042968 0.0625 0.11719 0.61719 1.0977 1.5781 0.19531 0.12891-0.12109 0.33594-0.11719 0.45703 0.015625 0.09375 0.10156 0.11328 0.24219 0.058594 0.35938-1.3047 3.1602-2.8594 4.6133-4.4688 6.1133-1.1953 1.1133-2.4141 2.25-3.5664 4.1602 0.09375 0.070313 0.25 0.14063 0.43359 0.20703 0.53906 0.19922 1.2539 0.30469 1.5391 0.33594 0.48828 0.054688 0.96484-0.38672 0.96875-0.38672 0.13281-0.12109 0.33594-0.11328 0.45703 0.019532 0.027343 0.027344 0.046874 0.0625 0.0625 0.097656 0.011718 0.027344 0.19141 0.4375 0.71875 0.38672 0.1875-0.019531 0.40625-0.21094 0.60937-0.46484 0.33594-0.41797 0.61328-0.98438 0.75391-1.3633 0.0625-0.16797 0.25-0.25391 0.41797-0.19141 0.14062 0.050781 0.22266 0.19141 0.21094 0.33203-0.27734 2.9336-2.6172 6.3203-4.7227 9.3711-1.7461 2.5312-3.332 4.8281-3.3633 6.3008 0.17187 0.10547 0.33594 0.21094 0.48437 0.30469 0.5625 0.35938 0.85547 0.54688 1.4531 0.5 0.78125-0.0625 1.5078-0.88281 1.8164-1.2305 0.10156-0.11328 0.16797-0.19141 0.23828-0.23047 0.15625-0.085938 0.35547-0.03125 0.44141 0.125 0.007813 0.011718 0.011719 0.023437 0.015625 0.035156 0.1875 0.36719 0.40625 0.62891 0.64062 0.79297 0.28516 0.20312 0.60547 0.25781 0.92188 0.20703 0.33984-0.058594 0.6875-0.24219 1.0039-0.51172 0.4375-0.375 0.81641-0.91016 1.0586-1.5234 0.066406-0.16797 0.25391-0.25 0.42188-0.18359 0.10938 0.042969 0.18359 0.14062 0.20312 0.25 0.12891 0.66797 0.38672 1.1133 0.71094 1.3672 0.21484 0.16797 0.46094 0.25 0.71484 0.25391 0.26172 0.003906 0.53906-0.078125 0.80078-0.23828 0.47656-0.28906 0.90625-0.82812 1.1445-1.5859zm31.887 5.3086c0.63281 0.44141 1.3438 1.6406 1.7578 2.9922 0.26563 0.85938 0.41406 1.7891 0.35156 2.6289-0.0625 0.85156-0.33984 1.6172-0.92969 2.1445 0.078124-0.023438 0.15625-0.050782 0.23437-0.078126 0.015626-0.007812 0.03125-0.015624 0.050782-0.019531 0.32031-0.11719 0.65625-0.26172 0.98438-0.44531 0.011719-0.007813 0.023437-0.015625 0.039062-0.019531 0.1875-0.10547 0.375-0.21875 0.55859-0.34766 0.94922-0.65234 1.8125-1.6055 2.2617-2.9102 0.41406-1.1875 0.20703-2.3789-0.13281-4.3516-0.14062-0.82031-0.30469-1.7734-0.46094-2.9102-0.34766 0.53906-0.5625 1.0859-0.75781 1.5898-0.36719 0.9375-0.67969 1.7383-1.6289 2.1328-0.050781 0.027344-0.11328 0.035157-0.17188 0.019532-0.12891-0.035156-0.20703-0.16797-0.17188-0.29688 0.6875-2.5898 0.41406-3.8047 0.15234-4.9688-0.078125-0.34375-0.15234-0.68359-0.20703-1.0508-0.1875 0.30469-0.41797 0.64062-0.63672 0.95703-0.28516 0.41406-0.55078 0.79688-0.66016 1.0156-0.035156 0.089844-0.125 0.15625-0.22656 0.15625-0.13281 0-0.24219-0.10938-0.24219-0.24219 0-1.5117-0.039062-2.4766-0.35547-3.3242-0.25781-0.6875-0.70703-1.3242-1.4766-2.1406 0.47656 2.5117-0.054687 3.707-0.60938 4.9531-0.41016 0.92578-0.83594 1.8789-0.82422 3.4805 0.015624 0.10938 0.015624 0.22656 0.007812 0.33984-0.011719 0.13281-0.12891 0.23438-0.26172 0.22266-0.12891-0.011718-0.22656-0.12109-0.22266-0.25-0.003906-0.089844-0.003906-0.17578-0.007813-0.26172-0.0625-0.44531-0.38281-0.85156-0.78125-1.1992-0.37891-0.33203-0.83203-0.61328-1.2188-0.83594 0.003907 0.42969 0.015626 0.77344 0.023438 1.082 0.039062 1.2539 0.058594 1.9219-0.375 3.6836-0.11719 0.48047-0.14844 0.99219-0.10156 1.5078 0.09375 1.0078 0.49609 2.0234 1.1484 2.8594 0.33203 0.42188 0.72656 0.79688 1.1797 1.0977 0.007813 0.003906 0.019532 0.011719 0.027344 0.015625 0.42188 0.27734 0.89453 0.49219 1.4102 0.62109-0.4375-0.39844-0.76562-0.98047-0.84375-1.7422-0.007812-0.0625-0.011718-0.12891-0.015624-0.19531-0.023438-0.55078 0.15625-1.0898 0.35156-1.668 0.21094-0.62891 0.4375-1.3008 0.39062-2.0352-0.007813-0.125 0.078125-0.23438 0.20312-0.25391 0.13281-0.023438 0.25781 0.070312 0.27734 0.19922 0.058594 0.35156 0.24609 0.69531 0.42969 1.043 0.066407 0.12109 0.13281 0.24609 0.19531 0.36719 0.12891-0.39844 0.29688-0.6875 0.46094-0.96484 0.3125-0.53516 0.60156-1.0273 0.4375-2.375-0.007812-0.058594 0.007813-0.11719 0.042969-0.16797 0.078125-0.10938 0.22656-0.13672 0.33984-0.058594zm-22.051-29.824c0.16797 0.066406 0.25 0.25391 0.18359 0.42188l-0.007812 0.019531c-0.54688 1.4336-1.7266 1.082-2.2734 0.82422-0.25 0.34375-0.76172 0.85547-1.4961 0.67188 1.1641 2.418 2.5156 3.6758 3.9062 4.9766 1.2617 1.1797 2.5586 2.3867 3.793 4.4883 0.050781 0.085937 0.058593 0.1875 0.023437 0.27344-0.11328 0.30859-0.47266 0.53125-0.90625 0.6875-0.19922 0.074219-0.42188 0.13672-0.63672 0.1875-0.082031 2.875-0.28516 3.6016-0.53906 4.5312-0.10938 0.39062-0.22656 0.82031-0.34766 1.4727 0.44141 0.72266 0.86328 1.3867 1.2305 1.9453 0.54297-0.70312 1.0898-1.4219 1.6367-2.1445-0.14453-2.3164-0.125-4.3633-0.10547-6.543 0.003906-0.5625 0.011719-1.1328 0.011719-1.7148-0.007813-0.046875-0.007813-0.09375 0-0.13672v-0.074219c0-0.17969 0.14453-0.32422 0.32422-0.32422 0.17969 0 0.32422 0.14453 0.32422 0.32422v0.10547c0.24219 0.72266 0.66016 1.2422 1.125 1.5234 0.26172 0.16016 0.53906 0.24219 0.80078 0.23828 0.25391-0.003906 0.5-0.085938 0.71484-0.25391 0.32422-0.25391 0.58203-0.69922 0.71094-1.3672 0.015625-0.10938 0.089844-0.20703 0.20312-0.25 0.16797-0.066406 0.35547 0.015625 0.42188 0.18359 0.082031 0.20703 0.41797 0.55469 0.70312 0.85156 0.039062 0.042969 0.082031 0.082032 0.12109 0.125 1.4531-2.0586 2.8711-4.1289 4.2148-6.1797-0.29688-0.4375-0.625-0.90234-0.96875-1.3906-1.7422-2.4766-3.8906-5.5273-4.082-7.5391-0.011718-0.14063 0.070313-0.28125 0.21094-0.33203 0.16797-0.0625 0.35547 0.023438 0.41797 0.19141 0.14063 0.37891 0.42188 0.94531 0.75391 1.3633 0.20703 0.25781 0.42188 0.44922 0.60938 0.46484 0.52344 0.050781 0.70703-0.35938 0.71875-0.38672 0.015625-0.035157 0.035156-0.066407 0.0625-0.097657 0.12109-0.13281 0.32812-0.14062 0.45703-0.019531 0 0 0.48047 0.4375 0.96875 0.38672 0.28516-0.03125 1-0.14062 1.5391-0.33594 0.18359-0.066406 0.34375-0.14062 0.43359-0.20703-1.1523-1.9062-2.375-3.0469-3.5664-4.1602-1.6094-1.5-3.168-2.9531-4.4688-6.1133-0.054687-0.11719-0.039063-0.26172 0.058594-0.35938 0.12109-0.12891 0.32812-0.13672 0.45703-0.015625 0.95703 0.90234 1.5156-0.078125 1.5781-0.19531 0.007813-0.015625 0.015625-0.027343 0.023437-0.042969 0.097657-0.14844 0.29688-0.19141 0.44922-0.09375 0.003907 0.003907 0.99609 0.66406 1.4922-0.12891-0.9375-0.64844-2.5391-2.6953-4.0742-4.9844-1.5078-2.2539-2.9688-4.7578-3.6602-6.3828-0.69141 1.625-2.1484 4.1328-3.6602 6.3828-1.5312 2.2891-3.1367 4.3359-4.0742 4.9844 0.49609 0.79297 1.4883 0.12891 1.4922 0.12891 0.14844-0.097656 0.35156-0.054687 0.44922 0.09375 0.007813 0.015626 0.015625 0.027344 0.023437 0.042969 0.0625 0.11719 0.61719 1.0977 1.5781 0.19531 0.12891-0.12109 0.33594-0.11719 0.45703 0.015625 0.09375 0.10156 0.11328 0.24219 0.058593 0.35938-1.3047 3.1602-2.8594 4.6133-4.4688 6.1133-0.19922 0.18359-0.39453 0.36719-0.58984 0.55078 0.36328 0.58203 0.74219 1.168 1.125 1.7383 1.6523 2.4648 3.3438 4.6211 4.0742 4.9102zm10.133 39.102-0.042969-0.023437c0.015626 0.042969 0.03125 0.085937 0.042969 0.13281 0.046875 0.17969 0.058594 0.37109 0.019531 0.55469-0.058593 0.25781-0.21875 0.48828-0.52734 0.63281-0.12109 0.058594-0.26562 0.003907-0.32422-0.11719s-0.003906-0.26562 0.11719-0.32422c0.15234-0.070313 0.23047-0.17969 0.25781-0.30078 0.023438-0.10156 0.015625-0.21094-0.015625-0.32031-0.03125-0.11328-0.082031-0.21875-0.14453-0.30078-0.054688-0.074219-0.10547-0.125-0.14453-0.13672h-0.023437l-0.011719 0.003907c-0.11719 0.019531-0.27734 0.125-0.41406 0.29297-0.14062 0.17578-0.24219 0.41406-0.22656 0.69531 0.003907 0.039062 0.007813 0.085937 0.015625 0.13672 0.082032 0.46875 0.30859 0.69922 0.56641 0.76172 0.13281 0.03125 0.27734 0.023438 0.42188-0.019531 0.15234-0.042969 0.29687-0.12109 0.42187-0.22656 0.29688-0.24609 0.48438-0.63672 0.35156-1.0508-0.054687-0.17188-0.18359-0.29688-0.34766-0.39062zm43.562-28.707c-2.1055-3.0508-4.4414-6.4375-4.7227-9.3711-0.011719-0.14062 0.070313-0.28125 0.21094-0.33203 0.16797-0.0625 0.35547 0.023438 0.41797 0.19141 0.14062 0.37891 0.42188 0.94531 0.75391 1.3633 0.20703 0.25781 0.42187 0.44922 0.60937 0.46484 0.52344 0.050781 0.70703-0.35938 0.71875-0.38672 0.015626-0.035156 0.035157-0.066406 0.0625-0.097656 0.12109-0.13281 0.32813-0.14062 0.45703-0.019531 0 0 0.48047 0.4375 0.96875 0.38672 0.28516-0.03125 1-0.14062 1.5391-0.33594 0.18359-0.066406 0.34375-0.14062 0.43359-0.20703-1.1523-1.9062-2.375-3.0469-3.5664-4.1602-1.6094-1.5-3.168-2.9531-4.4688-6.1133-0.054688-0.11719-0.039063-0.26172 0.058594-0.35938 0.12109-0.12891 0.32812-0.13672 0.45703-0.015624 0.95703 0.90234 1.5156-0.078126 1.5781-0.19531 0.007812-0.015625 0.015625-0.027344 0.023437-0.042969 0.097657-0.14844 0.29688-0.19141 0.44922-0.09375 0.003906 0.003906 0.99609 0.66406 1.4922-0.12891-0.9375-0.64844-2.5391-2.6953-4.0742-4.9844-1.5078-2.2539-2.9688-4.7578-3.6602-6.3867-0.6875 1.625-2.1484 4.1328-3.6602 6.3828-1.5312 2.2891-3.1367 4.3359-4.0742 4.9844 0.49609 0.79297 1.4883 0.12891 1.4922 0.12891 0.14844-0.097656 0.35156-0.054688 0.44922 0.09375 0.007812 0.015625 0.015625 0.027344 0.023437 0.042969 0.0625 0.11719 0.61719 1.0977 1.5781 0.19531 0.12891-0.12109 0.33594-0.11719 0.45703 0.015625 0.09375 0.10156 0.11328 0.24219 0.058593 0.35938-1.3047 3.1602-2.8594 4.6133-4.4688 6.1133-1.1914 1.1133-2.4141 2.25-3.5664 4.1602 0.09375 0.070312 0.25 0.14062 0.43359 0.20703 0.53906 0.19922 1.2539 0.30469 1.5391 0.33594 0.48828 0.054687 0.96484-0.38672 0.96875-0.38672 0.13281-0.12109 0.33594-0.11328 0.45703 0.019531 0.027344 0.027344 0.046876 0.0625 0.0625 0.097656 0.011719 0.027344 0.19141 0.4375 0.71875 0.38672 0.1875-0.019531 0.40625-0.21094 0.60938-0.46484 0.33594-0.41797 0.61328-0.98438 0.75391-1.3633 0.0625-0.16797 0.25-0.25391 0.41797-0.19141 0.14063 0.050781 0.22266 0.19141 0.21094 0.33203-0.10547 1.1133-0.72656 2.8438-1.5391 4.6406-0.92578 2.0547-2.1094 4.2148-3.0469 5.6406 0.94922 1.3438 1.9141 2.6797 2.8867 3.9961 0.28906 0.37109 1.082 0.13281 1.5234-0.003907 0.33984-0.10156 0.57031-0.17187 0.72656 0.0625 0.16016 0.24219 0.46875 0.43359 0.83984 0.55078 0.33594 0.10547 0.71484 0.14844 1.0859 0.11719 0.35938-0.03125 0.70313-0.13281 0.98047-0.3125 0.22656-0.14844 0.40625-0.35938 0.50781-0.63281v-0.10547c0-0.17969 0.14453-0.32422 0.32422-0.32422 0.17969 0 0.32422 0.14453 0.32422 0.32422v0.074219c0.007813 0.042969 0.011719 0.089843 0 0.13672 0.003907 0.58203 0.007813 1.1523 0.011719 1.7148 0.019531 2.1836 0.039062 4.2305-0.10547 6.5508 0.86328 1.0938 1.7109 2.1484 2.5352 3.1641-0.65625-2.9297-0.61719-5.5547-0.57813-8.2383 0.015626-1.0586 0.03125-2.125 0.003907-3.2227-0.015625-0.15234 0.074219-0.29688 0.22656-0.34375 0.17188-0.054688 0.35156 0.039062 0.40625 0.21094 0.23828 0.75391 0.66406 1.293 1.1445 1.582 0.26172 0.16016 0.53906 0.24219 0.80078 0.23828 0.25391-0.003907 0.5-0.085938 0.71484-0.25391 0.32422-0.25391 0.58203-0.69922 0.71094-1.3672 0.015625-0.10938 0.089844-0.20703 0.20312-0.25 0.16797-0.066406 0.35547 0.015625 0.42188 0.18359 0.24219 0.61328 0.62109 1.1484 1.0586 1.5234 0.32031 0.27344 0.66406 0.45703 1.0039 0.51172 0.31641 0.054687 0.63672-0.003906 0.92188-0.20703 0.23438-0.16406 0.44922-0.42187 0.63672-0.79297 0.003906-0.011719 0.011719-0.023438 0.015625-0.035156 0.085937-0.15625 0.28516-0.21094 0.44141-0.125 0.070312 0.039062 0.14062 0.11719 0.23828 0.23047 0.30859 0.34375 1.0391 1.1641 1.8164 1.2305 0.59766 0.046875 0.89062-0.13672 1.4531-0.5 0.14844-0.09375 0.30859-0.19922 0.48438-0.30469-0.03125-1.4727-1.6172-3.7656-3.3633-6.3008zm-20.238 28.508-0.011719-0.003907h-0.023437c-0.039063 0.011719-0.09375 0.070313-0.14062 0.14844-0.042969 0.066406-0.074219 0.14844-0.089844 0.23047-0.015625 0.078124-0.011719 0.16016 0.007813 0.23437 0.039062 0.13281 0.15234 0.25391 0.37891 0.32422 0.12891 0.039063 0.19922 0.17578 0.16016 0.30469-0.039062 0.12891-0.17578 0.19922-0.30469 0.16016-0.41016-0.12891-0.62109-0.375-0.70312-0.65234-0.046876-0.15234-0.046876-0.3125-0.019532-0.46094 0.007813-0.042969 0.019532-0.085938 0.03125-0.12891-0.027344 0.011718-0.054687 0.027343-0.078125 0.039062-0.16406 0.089844-0.29297 0.21875-0.34766 0.39062-0.13281 0.41797 0.054687 0.80859 0.35156 1.0508 0.125 0.10547 0.27344 0.18359 0.42187 0.22656 0.14453 0.042969 0.28906 0.050781 0.42188 0.019531 0.25781-0.0625 0.48437-0.29297 0.56641-0.76172 0.007812-0.050781 0.015625-0.09375 0.015625-0.13672 0.015625-0.28125-0.085938-0.52344-0.22656-0.69531-0.13672-0.16797-0.29688-0.27344-0.41406-0.29297zm-1.4648 6.1289c-0.015625 0.003906-0.0625 0.023437-0.125 0.054687-0.125 0.0625-0.26562 0.16797-0.39453 0.30078-0.125 0.12891-0.23047 0.28125-0.28906 0.42969-0.050781 0.12891-0.0625 0.24609 0 0.33203 0.078126 0.10938 0.050782 0.26172-0.058593 0.33594-0.10938 0.078125-0.26172 0.050781-0.33594-0.058594-0.16797-0.23828-0.16016-0.51562-0.054687-0.78906 0.082031-0.20703 0.22656-0.41406 0.39453-0.58594 0.0625-0.066406 0.13281-0.12891 0.20312-0.1875-0.042969 0-0.085938 0-0.12891 0.003906-0.21875 0.015625-0.42969 0.089844-0.60938 0.25391-0.4375 0.40625-0.53516 0.94531-0.41406 1.3711 0.042969 0.15625 0.12109 0.29688 0.21875 0.40234 0.089844 0.097656 0.20312 0.16797 0.32812 0.19922 0.28125 0.0625 0.64453-0.074219 1.0508-0.53906 0.058594-0.066406 0.10547-0.13281 0.15234-0.19922 0.19141-0.29687 0.25391-0.59766 0.24219-0.84766-0.011719-0.22656-0.078125-0.39844-0.15625-0.46484zm-0.82812-0.65234c0.050781-0.003906 0.10547-0.003906 0.15625-0.003906-0.41797-0.37109-0.95703-0.80859-1.4883-1.2461-0.58594-0.47656-1.1641-0.95312-1.5781-1.3281-0.69922-0.63672-1.5117-1.3242-2.3281-1.9766l-0.027344-0.019531-0.003906-0.003906c-0.83203-0.66797-1.6641-1.2969-2.3711-1.8008-0.48047 0.16016-0.93359 0.25391-1.3281 0.28906-0.12891 0.15234-0.21875 0.32812-0.26562 0.51562-0.046875 0.18359-0.046875 0.375 0.007813 0.55078 0.097656 0.10547 0.41016 0.35547 0.875 0.71875 0.76172 0.59766 1.9062 1.5 3.2188 2.6914 0.90234 0.82031 2 1.875 2.875 2.7188 0.26562 0.25781 0.51172 0.49219 0.72656 0.69531-0.011719-0.48047 0.17188-1.0078 0.61719-1.4219 0.26953-0.25 0.58594-0.35938 0.90625-0.38281zm1.25-5.6953c-0.53125-0.089844-1.1758-0.18359-1.8125-0.27344-0.74219-0.10547-1.4766-0.21094-2.0352-0.3125-0.57812-0.10938-1.2148-0.21484-1.875-0.3125-0.66797-0.10156-1.3516-0.19531-2.0117-0.27734-0.20312 0.10938-0.40625 0.20703-0.60938 0.29297 0.64453 0.46875 1.3633 1.0156 2.082 1.5898 0.1875 0.03125 0.35938 0.058593 0.50391 0.085937 0.16406 0.027344 0.35938 0.0625 0.58984 0.10547 1.1914 0.22266 2.6836 0.53516 3.875 0.78516l0.91016 0.19141c-0.22266-0.33594-0.32031-0.76172-0.17969-1.2109 0.09375-0.29688 0.30469-0.51172 0.56641-0.66016zm21.441-1.6133h-0.65234c-1.8203-1.8398-4.457-4.8125-7.4883-8.4766-0.14062 0.003906-0.27344-0.085938-0.31641-0.22656-0.027344-0.082031-0.050781-0.16797-0.074218-0.25-1.125-1.3672-2.3008-2.8242-3.5039-4.3477-0.007812-0.007813-0.015625-0.019531-0.023437-0.027344-1.9922-2.5234-4.0625-5.2305-6.1133-8.0195-1.0195-1.3867-2.0391-2.7969-3.0391-4.2109-0.007812-0.007812-0.015625-0.019531-0.019531-0.027343-4.3398-6.1406-8.3711-12.422-11.117-17.805-1.7852 3.4961-4.1094 7.3711-6.7109 11.34-0.007813 0.011719-0.011719 0.019531-0.019532 0.03125-1.4492 2.2148-2.9844 4.457-4.5586 6.6797-0.007813 0.011719-0.015625 0.023438-0.023438 0.03125-0.94531 1.332-1.9023 2.6562-2.8633 3.9609-0.71094 0.96875-1.4258 1.9258-2.1406 2.8711-0.019531 0.046875-0.050781 0.085937-0.089844 0.11719-0.64453 0.85156-1.2852 1.6914-1.9258 2.5195-0.007812 0.011719-0.019531 0.023438-0.027344 0.035157-1.0234 1.3242-2.0312 2.6094-3.0195 3.8438-0.007813 0.011719-0.019531 0.027343-0.03125 0.039062-2.4688 3.0898-4.7852 5.8555-6.7539 8.0938-0.011719 0.015625-0.023438 0.03125-0.039063 0.042969-1.2422 1.4141-2.3477 2.6133-3.2656 3.5508-0.019531 0.078125-0.046875 0.15625-0.066406 0.23438h-0.18359c-0.35547 0-0.64453 0.28906-0.64453 0.64453 0 0.35547 0.28906 0.64453 0.64453 0.64453h15.914c0.35547 0 0.64453-0.28906 0.64453-0.64453 0-0.35547-0.28906-0.64453-0.64453-0.64453h-8.625c4.3633-5.3242 9.8086-12.352 14.68-19.316 3.9258-5.6172 7.4727-11.184 9.7539-15.754l0.046874-0.09375 0.011719-0.011719 0.10156-0.050781 0.011718-0.003906c0.03125-0.011719 0.0625-0.019532 0.09375-0.023438h0.054688c0.03125 0.003906 0.0625 0.007812 0.09375 0.023438l0.10938 0.054687 0.011719 0.011719 0.046875 0.09375c2.2578 4.5195 5.7773 10.02 9.6836 15.582 4.9375 7.0273 10.473 14.125 14.875 19.492h-10.777c-0.35547 0-0.64453 0.28906-0.64453 0.64453 0 0.35547 0.28906 0.64453 0.64453 0.64453h17.973c0.35547 0 0.64453-0.28906 0.64453-0.64453 0-0.35547-0.28906-0.64453-0.64453-0.64453z"/>
<text x="0.0" y="117.5" font-size="5.0" font-weight="bold" font-family="Arbeit Regular, Helvetica, Arial-Unicode, Arial, Sans-serif" fill="#000000">Created by Ahmad Ishaq</text><text x="0.0" y="122.5" font-size="5.0" font-weight="bold" font-family="Arbeit Regular, Helvetica, Arial-Unicode, Arial, Sans-serif" fill="#000000">from Noun Project</text></svg>