<svg xmlns="http://www.w3.org/2000/svg" data-name="レイヤー 1" viewBox="0 0 85.01 85.725" x="0px" y="0px"><path d="M75.62,1.81A37.57,37.57,0,0,0,68,.33c-4.59-.28-8.18,1-11.66,2.18a24.19,24.19,0,0,1-8,1.82c-3.08,0-7.87-1.09-12.5-2.15S26.26,0,23,0A42.21,42.21,0,0,0,12.8,1.45C9.72,2.13,5.91,3,0,3.94V5.38l1.2-.21c5.39-.9,9-1.69,11.91-2.34A41.56,41.56,0,0,1,23,1.42c3.08,0,7.87,1.09,12.5,2.15,2.84.65,5.74,1.3,8.31,1.73-7.61.56-22,2.05-22.15,5.3-.1,2.58,9.28,1.41,9.2,3.75,0,.85-4.32.6-4.34,2.29,0,2.06,4.89,2.19,8.64,2.79,10.38,1.67,19.2,4.28,19.46,10.74a15.85,15.85,0,0,1-.07,2.3l20.41,0a29.48,29.48,0,0,0-6.47-5.24C62.46,23.53,52.13,19.62,42,17.6c-2.63-.52-6.75-1.06-6.76-1.75s6.16-.58,6.16-1.68c0-1.75-15.5-2.25-16.12-3.57S26,8.83,27.84,8.33a148.91,148.91,0,0,1,17-2.89,25.34,25.34,0,0,0,3.54.31,25.3,25.3,0,0,0,8.43-1.9c3.34-1.16,6.79-2.37,11.11-2.1a36.42,36.42,0,0,1,7.39,1.42,73.91,73.91,0,0,0,8.57,1.88L85,5.24V3.79A71.79,71.79,0,0,1,75.62,1.81Z"/><path d="M76.78,49.35c3.79-5.82,2.66-11.12-.61-15.45H71.58l0,2.61H70.15V33.9H65.73v2.61H64.31V33.89H59.89v2.62H58.47V33.89H54.35c-2,9.84-14,14.48-29.21,20.84-9.29,3.9-25,7.67-25,7.67v6.18H83.3S68.76,61.66,76.78,49.35Z"/><text x="0" y="83.58" fill="#000000" font-size="5px" font-weight="bold" font-family="'Helvetica Neue', Helvetica, Arial-Unicode, Arial, Sans-serif">Created by Hayashi Fumihiro</text><text x="0" y="88.58" fill="#000000" font-size="5px" font-weight="bold" font-family="'Helvetica Neue', Helvetica, Arial-Unicode, Arial, Sans-serif">from the Noun Project</text></svg>